STARTFONT 2.1
COMMENT CDDL HEADER START
COMMENT
COMMENT The contents of this file are subject to the terms of the
COMMENT Common Development and Distribution License (the "License").
COMMENT You may not use this file except in compliance with the License.
COMMENT
COMMENT You can obtain a copy of the license at src/OPENSOLARIS.LICENSE
COMMENT or http://www.opensolaris.org/os/licensing.
COMMENT See the License for the specific language governing permissions
COMMENT and limitations under the License.
COMMENT
COMMENT When distributing Covered Code, include this CDDL HEADER in each
COMMENT file and include the License file at src/OPENSOLARIS.LICENSE.
COMMENT If applicable, add the following below this CDDL HEADER, with the
COMMENT fields enclosed by brackets "[]" replaced with your own identifying
COMMENT information: Portions Copyright [yyyy] [name of copyright owner]
COMMENT
COMMENT CDDL HEADER END
COMMENT
COMMENT Copyright (c) 1998-2001 by Sun Microsystems, Inc.
COMMENT All rights reserved.
COMMENT
COMMENT "@(#)splmt12.bdf	1.10 01/08/15 SMI"
COMMENT 
FONT -sun-supplement-medium-r-normal--12-120-75-75-p-120-unicode-fontspecific
SIZE 12 72 72
FONTBOUNDINGBOX 12 12 0 -2
STARTPROPERTIES 19
FONTNAME_REGISTRY ""
FOUNDRY "sun"
FAMILY_NAME "supplement"
WEIGHT_NAME "medium"
SLANT "R"
SETWIDTH_NAME "normal"
ADD_STYLE_NAME ""
PIXEL_SIZE 12
POINT_SIZE 120
RESOLUTION_X 75
RESOLUTION_Y 75
SPACING "P"
AVERAGE_WIDTH 120
CHARSET_REGISTRY "unicode"
CHARSET_ENCODING "fontspecific"
DEFAULT_CHAR 0
FONT_DESCENT 2
FONT_ASCENT 12
COPYRIGHT "Copyright (c) 1998-2001 by Sun Microsystems, Inc."
ENDPROPERTIES
CHARS 24
STARTCHAR notdefined
ENCODING 0
SWIDTH 500 0
DWIDTH 6 0
BBX 6 11 0 -2
BITMAP
00
4c
90
24
48
90
24
48
90
24
00
ENDCHAR
STARTCHAR no_half
ENCODING 1
SWIDTH 500 0
DWIDTH 6 0
BBX 6 11 0 -2
BITMAP
00
fc
cc
cc
b4
b4
b4
cc
cc
fc
00
ENDCHAR
STARTCHAR no_full
ENCODING 2
SWIDTH 1000 0
DWIDTH 12 0
BBX 12 11 0 -2
BITMAP
0000
7fe0
6060
50a0
4920
4620
4920
50a0
6060
7fe0
0000
ENDCHAR
STARTCHAR euro_20ac
ENCODING 3
SWIDTH 500 0
DWIDTH 6 0
BBX 6 11 0 -2
BITMAP
00
18
24
40
f8
40
f0
40
44
38
00
ENDCHAR
STARTCHAR replcmnt_fffd
ENCODING 4
SWIDTH 500 0
DWIDTH 6 0
BBX 6 11 0 -2
BITMAP
00
10
38
44
54
f6
6c
7c
28
10
00
ENDCHAR
STARTCHAR OE_0152
ENCODING 5
SWIDTH 500 0
DWIDTH 6 0
BBX 6 11 0 -2
BITMAP
00
6e
90
90
90
9e
90
90
90
6e
00
ENDCHAR
STARTCHAR oe_0153
ENCODING 6
SWIDTH 500 0
DWIDTH 6 0
BBX 6 11 0 -2
BITMAP
00
00
00
4c
b2
92
9e
90
92
6c
00
ENDCHAR
STARTCHAR Yumlaut_0178
ENCODING 7
SWIDTH 500 0
DWIDTH 6 0
BBX 6 11 0 -2
BITMAP
00
28
28
00
44
44
38
10
10
10
00
ENDCHAR
STARTCHAR Ccircumflex_0108
ENCODING 8
SWIDTH 500 0
DWIDTH 6 0
BBX 6 11 0 -1
BITMAP
10
28
00
38
48
80
80
80
40
38
00
ENDCHAR
STARTCHAR ccircumflex_0109
ENCODING 9
SWIDTH 500 0
DWIDTH 6 0
BBX 6 11 0 -2
BITMAP
10
28
00
38
40
40
40
40
38
00
00
ENDCHAR
STARTCHAR Cdotabove_010a
ENCODING 10
SWIDTH 500 0
DWIDTH 6 0
BBX 6 11 0 -1
BITMAP
10
10
00
38
48
80
80
80
40
38
00
ENDCHAR
STARTCHAR cdotabove_010b
ENCODING 11
SWIDTH 500 0
DWIDTH 6 0
BBX 6 11 0 -2
BITMAP
10
10
00
38
40
40
40
40
38
00
00
ENDCHAR
STARTCHAR Gcircumflex_011c
ENCODING 12
SWIDTH 500 0
DWIDTH 6 0
BBX 6 11 0 -1
BITMAP
10
28
00
38
48
80
80
88
48
38
00
ENDCHAR
STARTCHAR gcircumflex_011d
ENCODING 13
SWIDTH 500 0
DWIDTH 6 0
BBX 6 11 0 -2
BITMAP
10
28
00
38
48
48
48
58
28
08
70
ENDCHAR
STARTCHAR Gdotabove_0120
ENCODING 14
SWIDTH 500 0
DWIDTH 6 0
BBX 6 11 0 -1
BITMAP
10
10
00
38
48
80
80
88
48
38
00
ENDCHAR
STARTCHAR gdotabove_0121
ENCODING 15
SWIDTH 500 0
DWIDTH 6 0
BBX 6 11 0 -2
BITMAP
10
10
00
38
48
48
48
58
28
08
70
ENDCHAR
STARTCHAR Hcircumflex_0124
ENCODING 16
SWIDTH 500 0
DWIDTH 6 0
BBX 6 11 0 -1
BITMAP
10
28
00
48
48
48
78
48
48
48
00
ENDCHAR
STARTCHAR hcircumflex_0125
ENCODING 17
SWIDTH 500 0
DWIDTH 6 0
BBX 6 11 0 -1
BITMAP
10
28
00
40
40
50
68
48
48
48
00
ENDCHAR
STARTCHAR Jcircumflex_0134
ENCODING 18
SWIDTH 500 0
DWIDTH 6 0
BBX 6 11 0 -2
BITMAP
10
28
00
78
10
10
10
10
10
10
e0
ENDCHAR
STARTCHAR jcircumflex_0135
ENCODING 19
SWIDTH 500 0
DWIDTH 6 0
BBX 6 11 0 -2
BITMAP
00
10
28
00
70
10
10
10
10
10
e0
ENDCHAR
STARTCHAR Scircumflex_015c
ENCODING 20
SWIDTH 500 0
DWIDTH 6 0
BBX 6 11 0 -1
BITMAP
10
28
00
38
40
40
30
08
08
70
00
ENDCHAR
STARTCHAR scircumflex_015d
ENCODING 21
SWIDTH 500 0
DWIDTH 6 0
BBX 6 11 0 -2
BITMAP
10
28
00
38
40
60
18
08
70
00
00
ENDCHAR
STARTCHAR Ubreve_016c
ENCODING 22
SWIDTH 500 0
DWIDTH 6 0
BBX 6 11 0 -1
BITMAP
48
30
00
48
48
48
48
48
48
30
00
ENDCHAR
STARTCHAR ubreve_016d
ENCODING 23
SWIDTH 500 0
DWIDTH 6 0
BBX 6 11 0 -2
BITMAP
48
30
00
48
48
48
48
58
28
00
00
ENDCHAR
ENDFONT
